<svg xmlns="http://www.w3.org/2000/svg" xmlns:xlink="http://www.w3.org/1999/xlink" width="500" zoomAndPan="magnify" viewBox="0 0 375 374.999991" height="500" preserveAspectRatio="xMidYMid meet" version="1.0"><defs><g/><clipPath id="e77b3dfccd"><path d="M 48.992188 173.644531 L 337.5 173.644531 L 337.5 201.355469 L 48.992188 201.355469 Z M 48.992188 173.644531 " clip-rule="nonzero"/></clipPath></defs><rect x="-37.5" width="450" fill="#ffffff" y="-37.499999" height="449.999989" fill-opacity="1"/><rect x="-37.5" width="450" fill="#222c46" y="-37.499999" height="449.999989" fill-opacity="1"/><g fill="#ff1143" fill-opacity="1"><g transform="translate(108.86236, 235.068611)"><g><path d="M 47.851562 1.949219 C 73.949219 1.949219 93.75 -9 92.25 -29.25 C 90.148438 -60 18.75 -67.5 17.25 -88.5 C 16.5 -99.300781 28.199219 -105.300781 45.601562 -105.300781 C 56.101562 -105.300781 70.949219 -99.898438 85.050781 -91.351562 L 86.398438 -101.851562 C 73.050781 -105.898438 60.148438 -107.699219 48.75 -107.699219 C 25.050781 -107.699219 4.5 -99.148438 5.699219 -81.449219 C 7.5 -56.25 72.449219 -52.050781 78.449219 -25.949219 C 81.75 -10.800781 69.148438 -0.601562 50.550781 -0.601562 C 39.148438 -0.601562 24.898438 -5.699219 7.949219 -16.199219 L 6.75 -5.699219 C 21.300781 -0.601562 35.398438 1.949219 47.851562 1.949219 Z M 47.851562 1.949219 "/></g></g></g><g fill="#ece6db" fill-opacity="1"><g transform="translate(173.690076, 222.306665)"><g><path d="M 31.882812 0 L 51.4375 0 C 50.214844 -4.074219 49.605469 -10.1875 49.605469 -17.113281 L 49.605469 -57.449219 L 67.226562 -57.449219 C 73.847656 -57.449219 77.71875 -56.835938 81.078125 -55.714844 L 77.921875 -71.300781 L 5.296875 -71.300781 L 2.140625 -55.714844 C 5.601562 -56.9375 9.371094 -57.449219 15.992188 -57.449219 L 33.714844 -57.449219 L 33.714844 -17.113281 C 33.714844 -10.1875 33 -4.074219 31.882812 0 Z M 31.882812 0 "/></g></g></g><g clip-path="url(#e77b3dfccd)"><path fill="#222c46" d="M 48.992188 173.644531 L 337.5 173.644531 L 337.5 201.355469 L 48.992188 201.355469 Z M 48.992188 173.644531 " fill-opacity="1" fill-rule="nonzero"/></g><g fill="#ece6db" fill-opacity="1"><g transform="translate(87.038854, 190.874987)"><g><path d="M 6.398438 0.222656 C 9.488281 0.222656 11.503906 -1.085938 11.503906 -3.007812 C 11.503906 -7.261719 1.953125 -5.023438 1.953125 -8.429688 C 1.953125 -9.855469 3.984375 -10.703125 6.128906 -10.6875 C 7.789062 -10.6875 9.488281 -10.253906 10.527344 -9.664062 L 10.527344 -10.496094 C 9.4375 -11.007812 7.808594 -11.421875 6.128906 -11.421875 C 3.472656 -11.421875 1.136719 -10.300781 1.136719 -8.398438 C 1.136719 -4.175781 10.703125 -6.429688 10.703125 -2.960938 C 10.703125 -1.472656 8.941406 -0.511719 6.429688 -0.511719 C 4.589844 -0.511719 2.65625 -0.929688 0.910156 -1.839844 L 0.863281 -0.992188 C 2.574219 -0.191406 4.558594 0.222656 6.398438 0.222656 Z M 6.398438 0.222656 "/></g></g></g><g fill="#ece6db" fill-opacity="1"><g transform="translate(101.339867, 190.874987)"><g><path d="M 7.472656 0.222656 C 11.132812 0.222656 13.855469 -2.144531 13.855469 -5.597656 C 13.855469 -9.070312 11.132812 -11.421875 7.472656 -11.421875 C 3.792969 -11.421875 1.085938 -9.070312 1.085938 -5.597656 C 1.085938 -2.144531 3.792969 0.222656 7.472656 0.222656 Z M 7.472656 -0.527344 C 4.351562 -0.527344 1.886719 -2.511719 1.886719 -5.597656 C 1.886719 -8.703125 4.351562 -10.6875 7.472656 -10.6875 C 10.589844 -10.6875 13.054688 -8.703125 13.054688 -5.597656 C 13.054688 -2.511719 10.589844 -0.527344 7.472656 -0.527344 Z M 7.472656 -0.527344 "/></g></g></g><g fill="#ece6db" fill-opacity="1"><g transform="translate(118.152274, 190.874987)"><g><path d="M 1.710938 0 L 2.6875 0 C 2.625 -0.273438 2.589844 -0.574219 2.589844 -1.328125 L 2.589844 -5.039062 L 9.085938 -5.039062 C 9.839844 -5.039062 10.140625 -5.007812 10.414062 -4.941406 L 10.414062 -5.824219 C 10.140625 -5.773438 9.839844 -5.742188 9.085938 -5.742188 L 2.589844 -5.742188 L 2.589844 -10.460938 L 10.320312 -10.460938 C 11.070312 -10.460938 11.359375 -10.429688 11.628906 -10.367188 L 11.390625 -11.199219 L 1.710938 -11.199219 C 1.757812 -10.925781 1.792969 -10.621094 1.792969 -9.871094 L 1.792969 -1.328125 C 1.792969 -0.574219 1.757812 -0.273438 1.710938 0 Z M 1.710938 0 "/></g></g></g><g fill="#ece6db" fill-opacity="1"><g transform="translate(132.277324, 190.874987)"><g><path d="M 5.582031 0 L 6.558594 0 C 6.496094 -0.289062 6.464844 -0.574219 6.464844 -1.328125 L 6.464844 -10.460938 L 10.300781 -10.460938 C 11.054688 -10.460938 11.359375 -10.429688 11.628906 -10.382812 L 11.390625 -11.199219 L 0.75 -11.199219 L 0.511719 -10.382812 C 0.785156 -10.429688 1.070312 -10.460938 1.824219 -10.460938 L 5.679688 -10.460938 L 5.679688 -1.328125 C 5.679688 -0.574219 5.632812 -0.289062 5.582031 0 Z M 5.582031 0 "/></g></g></g><g fill="#ece6db" fill-opacity="1"><g transform="translate(146.274403, 190.874987)"><g><path d="M 5.582031 0 L 6.558594 0 C 6.496094 -0.289062 6.464844 -0.574219 6.464844 -1.328125 L 6.464844 -10.460938 L 10.300781 -10.460938 C 11.054688 -10.460938 11.359375 -10.429688 11.628906 -10.382812 L 11.390625 -11.199219 L 0.75 -11.199219 L 0.511719 -10.382812 C 0.785156 -10.429688 1.070312 -10.460938 1.824219 -10.460938 L 5.679688 -10.460938 L 5.679688 -1.328125 C 5.679688 -0.574219 5.632812 -0.289062 5.582031 0 Z M 5.582031 0 "/></g></g></g><g fill="#ece6db" fill-opacity="1"><g transform="translate(160.271481, 190.874987)"><g><path d="M 1.710938 0 L 11.679688 0 L 11.902344 -0.847656 C 11.628906 -0.785156 11.328125 -0.75 10.574219 -0.75 L 2.589844 -0.75 L 2.589844 -5.277344 L 9.152344 -5.277344 C 9.902344 -5.277344 10.207031 -5.246094 10.476562 -5.183594 L 10.476562 -6.0625 C 10.207031 -6.015625 9.902344 -5.984375 9.152344 -5.984375 L 2.589844 -5.984375 L 2.589844 -10.460938 L 10.300781 -10.460938 C 11.054688 -10.460938 11.359375 -10.429688 11.628906 -10.367188 L 11.390625 -11.199219 L 1.710938 -11.199219 C 1.757812 -10.925781 1.792969 -10.621094 1.792969 -9.871094 L 1.792969 -1.328125 C 1.792969 -0.574219 1.757812 -0.273438 1.710938 0 Z M 1.710938 0 "/></g></g></g><g fill="#ece6db" fill-opacity="1"><g transform="translate(175.036379, 190.874987)"><g><path d="M 7.902344 0.222656 C 9.550781 0.222656 11.246094 -0.222656 12.316406 -0.992188 L 12.316406 -1.871094 C 11.308594 -1.023438 9.566406 -0.527344 7.917969 -0.527344 C 4.511719 -0.527344 1.886719 -2.414062 1.886719 -5.566406 C 1.886719 -8.671875 4.511719 -10.6875 7.902344 -10.6875 C 9.421875 -10.6875 10.863281 -10.253906 11.789062 -9.566406 L 11.886719 -10.429688 C 10.863281 -11.054688 9.390625 -11.421875 7.917969 -11.421875 C 3.96875 -11.421875 1.085938 -9.023438 1.085938 -5.566406 C 1.085938 -2.078125 3.96875 0.222656 7.902344 0.222656 Z M 7.902344 0.222656 "/></g></g></g><g fill="#ece6db" fill-opacity="1"><g transform="translate(189.929244, 190.874987)"><g><path d="M 1.710938 0 L 2.6875 0 C 2.625 -0.273438 2.589844 -0.574219 2.589844 -1.328125 L 2.589844 -5.214844 L 12.046875 -5.214844 L 12.046875 -1.328125 C 12.046875 -0.574219 12.015625 -0.273438 11.949219 0 L 12.925781 0 C 12.863281 -0.273438 12.828125 -0.574219 12.828125 -1.328125 L 12.828125 -9.871094 C 12.828125 -10.621094 12.863281 -10.925781 12.925781 -11.199219 L 11.949219 -11.199219 C 12.015625 -10.925781 12.046875 -10.621094 12.046875 -9.871094 L 12.046875 -5.984375 L 2.589844 -5.984375 L 2.589844 -9.871094 C 2.589844 -10.621094 2.625 -10.925781 2.6875 -11.199219 L 1.710938 -11.199219 C 1.757812 -10.925781 1.792969 -10.621094 1.792969 -9.871094 L 1.792969 -1.328125 C 1.792969 -0.574219 1.757812 -0.273438 1.710938 0 Z M 1.710938 0 "/></g></g></g><g fill="#ece6db" fill-opacity="1"><g transform="translate(206.437734, 190.874987)"><g><path d="M 1.648438 0.160156 C 2.015625 0.160156 2.304688 -0.113281 2.304688 -0.464844 C 2.304688 -0.816406 2.015625 -1.085938 1.648438 -1.085938 C 1.296875 -1.085938 1.007812 -0.816406 1.007812 -0.464844 C 1.007812 -0.113281 1.296875 0.160156 1.648438 0.160156 Z M 1.648438 0.160156 "/></g></g></g><g fill="#ece6db" fill-opacity="1"><g transform="translate(211.620935, 190.874987)"><g><path d="M 7.902344 0.222656 C 9.550781 0.222656 11.246094 -0.222656 12.316406 -0.992188 L 12.316406 -1.871094 C 11.308594 -1.023438 9.566406 -0.527344 7.917969 -0.527344 C 4.511719 -0.527344 1.886719 -2.414062 1.886719 -5.566406 C 1.886719 -8.671875 4.511719 -10.6875 7.902344 -10.6875 C 9.421875 -10.6875 10.863281 -10.253906 11.789062 -9.566406 L 11.886719 -10.429688 C 10.863281 -11.054688 9.390625 -11.421875 7.917969 -11.421875 C 3.96875 -11.421875 1.085938 -9.023438 1.085938 -5.566406 C 1.085938 -2.078125 3.96875 0.222656 7.902344 0.222656 Z M 7.902344 0.222656 "/></g></g></g><g fill="#ece6db" fill-opacity="1"><g transform="translate(226.513805, 190.874987)"><g><path d="M 8.796875 0.222656 C 9.664062 0.222656 10.734375 0.160156 11.390625 0 L 11.644531 -0.894531 C 11.070312 -0.75 9.839844 -0.625 8.527344 -0.625 L 2.609375 -0.625 L 2.609375 -9.871094 C 2.609375 -10.621094 2.640625 -10.925781 2.6875 -11.199219 L 1.710938 -11.199219 C 1.777344 -10.925781 1.808594 -10.621094 1.808594 -9.871094 L 1.808594 -1.328125 C 1.808594 -0.574219 1.777344 -0.046875 1.710938 0.222656 C 2.542969 0.0625 3.742188 0 4.941406 0 C 6.222656 0 7.453125 0.222656 8.796875 0.222656 Z M 8.796875 0.222656 "/></g></g></g><g fill="#ece6db" fill-opacity="1"><g transform="translate(240.590872, 190.874987)"><g><path d="M 7.472656 0.222656 C 11.132812 0.222656 13.855469 -2.144531 13.855469 -5.597656 C 13.855469 -9.070312 11.132812 -11.421875 7.472656 -11.421875 C 3.792969 -11.421875 1.085938 -9.070312 1.085938 -5.597656 C 1.085938 -2.144531 3.792969 0.222656 7.472656 0.222656 Z M 7.472656 -0.527344 C 4.351562 -0.527344 1.886719 -2.511719 1.886719 -5.597656 C 1.886719 -8.703125 4.351562 -10.6875 7.472656 -10.6875 C 10.589844 -10.6875 13.054688 -8.703125 13.054688 -5.597656 C 13.054688 -2.511719 10.589844 -0.527344 7.472656 -0.527344 Z M 7.472656 -0.527344 "/></g></g></g><g fill="#ece6db" fill-opacity="1"><g transform="translate(257.403284, 190.874987)"><g><path d="M 7.167969 0.222656 C 10.414062 0.222656 12.636719 -1.726562 12.636719 -4.703125 L 12.636719 -9.871094 C 12.636719 -10.621094 12.6875 -10.925781 12.734375 -11.199219 L 11.757812 -11.199219 C 11.804688 -10.925781 11.855469 -10.621094 11.855469 -9.871094 L 11.855469 -4.71875 C 11.855469 -2.078125 9.871094 -0.527344 7.167969 -0.527344 C 4.464844 -0.527344 2.496094 -2.078125 2.496094 -4.71875 L 2.496094 -9.871094 C 2.496094 -10.621094 2.527344 -10.925781 2.574219 -11.199219 L 1.601562 -11.199219 C 1.664062 -10.925781 1.695312 -10.621094 1.695312 -9.871094 L 1.695312 -4.703125 C 1.695312 -1.726562 3.917969 0.222656 7.167969 0.222656 Z M 7.167969 0.222656 "/></g></g></g><g fill="#ece6db" fill-opacity="1"><g transform="translate(273.607842, 190.874987)"><g><path d="M 1.710938 0 L 7.070312 0 C 10.671875 0 13.246094 -2.253906 13.246094 -5.597656 C 13.246094 -8.941406 10.671875 -11.199219 7.070312 -11.199219 L 1.710938 -11.199219 C 1.777344 -10.925781 1.808594 -10.621094 1.808594 -9.871094 L 1.808594 -1.328125 C 1.808594 -0.574219 1.777344 -0.273438 1.710938 0 Z M 2.589844 -0.734375 L 2.589844 -10.476562 L 7.039062 -10.476562 C 10.09375 -10.476562 12.429688 -8.605469 12.429688 -5.597656 C 12.429688 -2.609375 10.09375 -0.734375 7.039062 -0.734375 Z M 2.589844 -0.734375 "/></g></g></g></svg>