<svg xmlns="http://www.w3.org/2000/svg" xmlns:xlink="http://www.w3.org/1999/xlink" width="500" zoomAndPan="magnify" viewBox="0 0 375 374.999991" height="500" preserveAspectRatio="xMidYMid meet" version="1.0"><defs><g/><clipPath id="5589dd5a34"><path d="M 133 58 L 327 58 L 327 188 L 133 188 Z M 133 58 " clip-rule="nonzero"/></clipPath><clipPath id="3185071336"><path d="M 128.875 148.300781 L 307.890625 53.363281 L 331.371094 97.636719 L 152.351562 192.574219 Z M 128.875 148.300781 " clip-rule="nonzero"/></clipPath><clipPath id="80494283a0"><path d="M 141.460938 141.625 L 295.300781 60.039062 C 302.253906 56.351562 310.878906 59 314.566406 65.953125 L 324.691406 85.046875 C 328.378906 92 325.734375 100.625 318.78125 104.3125 L 164.941406 185.898438 C 157.988281 189.585938 149.363281 186.9375 145.675781 179.984375 L 135.550781 160.890625 C 131.863281 153.9375 134.511719 145.3125 141.460938 141.625 Z M 141.460938 141.625 " clip-rule="nonzero"/></clipPath><clipPath id="1dccd851c4"><path d="M 223.125 114.277344 L 274.945312 114.277344 L 274.945312 343.007812 L 223.125 343.007812 Z M 223.125 114.277344 " clip-rule="nonzero"/></clipPath><clipPath id="0461c20c50"><path d="M 233.625 114.277344 L 264.445312 114.277344 C 267.230469 114.277344 269.898438 115.382812 271.867188 117.351562 C 273.835938 119.320312 274.945312 121.992188 274.945312 124.777344 L 274.945312 332.507812 C 274.945312 335.292969 273.835938 337.960938 271.867188 339.929688 C 269.898438 341.898438 267.230469 343.007812 264.445312 343.007812 L 233.625 343.007812 C 230.839844 343.007812 228.171875 341.898438 226.203125 339.929688 C 224.234375 337.960938 223.125 335.292969 223.125 332.507812 L 223.125 124.777344 C 223.125 121.992188 224.234375 119.320312 226.203125 117.351562 C 228.171875 115.382812 230.839844 114.277344 233.625 114.277344 Z M 233.625 114.277344 " clip-rule="nonzero"/></clipPath></defs><g clip-path="url(#5589dd5a34)"><g clip-path="url(#3185071336)"><g clip-path="url(#80494283a0)"><path fill="#35d8ee" d="M 128.875 148.300781 L 307.890625 53.363281 L 331.371094 97.636719 L 152.351562 192.574219 Z M 128.875 148.300781 " fill-opacity="1" fill-rule="nonzero"/></g></g></g><g clip-path="url(#1dccd851c4)"><g clip-path="url(#0461c20c50)"><path fill="#35d8ee" d="M 223.125 114.277344 L 274.945312 114.277344 L 274.945312 343.007812 L 223.125 343.007812 Z M 223.125 114.277344 " fill-opacity="1" fill-rule="nonzero"/></g></g><g fill="#35d8ee" fill-opacity="1"><g transform="translate(42.577118, 343.921125)"><g><path d="M 18.59375 -278.796875 C 18.59375 -291.503906 22.695312 -302.039062 30.90625 -310.40625 C 39.113281 -318.769531 48.945312 -322.953125 60.40625 -322.953125 L 118.484375 -322.953125 C 129.953125 -322.953125 139.789062 -318.691406 148 -310.171875 C 156.207031 -301.648438 160.3125 -291.191406 160.3125 -278.796875 L 160.3125 -264.859375 L 109.203125 -239.3125 L 109.203125 -274.15625 L 69.703125 -274.15625 L 69.703125 -188.1875 L 160.3125 -234.65625 L 160.3125 -44.140625 C 160.3125 -32.054688 156.207031 -21.675781 148 -13 C 139.789062 -4.332031 129.953125 0 118.484375 0 L 60.40625 0 C 48.945312 0 39.113281 -4.257812 30.90625 -12.78125 C 22.695312 -21.300781 18.59375 -31.753906 18.59375 -44.140625 L 18.59375 -74.34375 L 69.703125 -99.90625 L 69.703125 -48.796875 L 109.203125 -48.796875 L 109.203125 -151.015625 L 18.59375 -104.546875 Z M 18.59375 -278.796875 "/></g></g></g><g fill="#000000" fill-opacity="1"><g transform="translate(224.761615, 333.849969)"><g><path d="M 2.203125 0.078125 C 1.929688 0.078125 1.6875 0.0195312 1.46875 -0.09375 C 1.257812 -0.207031 1.097656 -0.363281 0.984375 -0.5625 C 0.878906 -0.757812 0.828125 -0.984375 0.828125 -1.234375 C 0.828125 -1.484375 0.878906 -1.707031 0.984375 -1.90625 C 1.097656 -2.101562 1.257812 -2.257812 1.46875 -2.375 C 1.6875 -2.488281 1.929688 -2.546875 2.203125 -2.546875 C 2.484375 -2.546875 2.726562 -2.488281 2.9375 -2.375 C 3.15625 -2.269531 3.316406 -2.117188 3.421875 -1.921875 C 3.535156 -1.722656 3.59375 -1.5 3.59375 -1.25 C 3.59375 -0.863281 3.46875 -0.546875 3.21875 -0.296875 C 2.96875 -0.046875 2.628906 0.078125 2.203125 0.078125 Z M 2.203125 0.078125 "/></g></g></g><g fill="#000000" fill-opacity="1"><g transform="translate(229.174605, 333.849969)"><g><path d="M 5.03125 0.171875 C 4.195312 0.171875 3.457031 0 2.8125 -0.34375 C 2.175781 -0.695312 1.675781 -1.207031 1.3125 -1.875 C 0.957031 -2.550781 0.78125 -3.363281 0.78125 -4.3125 C 0.78125 -5.257812 0.957031 -6.066406 1.3125 -6.734375 C 1.675781 -7.410156 2.175781 -7.921875 2.8125 -8.265625 C 3.445312 -8.609375 4.171875 -8.78125 4.984375 -8.78125 C 6.804688 -8.78125 7.972656 -8.125 8.484375 -6.8125 L 7 -5.75 L 6.828125 -5.75 C 6.648438 -6.15625 6.421875 -6.457031 6.140625 -6.65625 C 5.859375 -6.851562 5.472656 -6.953125 4.984375 -6.953125 C 4.359375 -6.953125 3.867188 -6.734375 3.515625 -6.296875 C 3.171875 -5.867188 3 -5.207031 3 -4.3125 C 3 -3.425781 3.175781 -2.765625 3.53125 -2.328125 C 3.882812 -1.890625 4.382812 -1.671875 5.03125 -1.671875 C 5.5 -1.671875 5.894531 -1.796875 6.21875 -2.046875 C 6.539062 -2.304688 6.773438 -2.671875 6.921875 -3.140625 L 7.078125 -3.15625 L 8.625 -2.3125 C 8.40625 -1.582031 8 -0.984375 7.40625 -0.515625 C 6.8125 -0.0546875 6.019531 0.171875 5.03125 0.171875 Z M 5.03125 0.171875 "/></g></g></g><g fill="#000000" fill-opacity="1"><g transform="translate(238.055254, 333.849969)"><g><path d="M 3.578125 0.171875 C 2.804688 0.171875 2.210938 -0.0351562 1.796875 -0.453125 C 1.390625 -0.878906 1.1875 -1.519531 1.1875 -2.375 L 1.1875 -12.078125 L 3.359375 -12.078125 L 3.359375 -2.46875 C 3.359375 -1.9375 3.578125 -1.671875 4.015625 -1.671875 C 4.140625 -1.671875 4.269531 -1.691406 4.40625 -1.734375 L 4.515625 -1.703125 L 4.71875 -0.046875 C 4.59375 0.0234375 4.429688 0.078125 4.234375 0.109375 C 4.035156 0.148438 3.816406 0.171875 3.578125 0.171875 Z M 3.578125 0.171875 "/></g></g></g><g fill="#000000" fill-opacity="1"><g transform="translate(243.007169, 333.849969)"><g><path d="M 5.015625 0.171875 C 4.171875 0.171875 3.425781 0 2.78125 -0.34375 C 2.144531 -0.695312 1.648438 -1.207031 1.296875 -1.875 C 0.953125 -2.550781 0.78125 -3.363281 0.78125 -4.3125 C 0.78125 -5.257812 0.953125 -6.066406 1.296875 -6.734375 C 1.648438 -7.410156 2.144531 -7.921875 2.78125 -8.265625 C 3.425781 -8.609375 4.171875 -8.78125 5.015625 -8.78125 C 5.859375 -8.78125 6.597656 -8.609375 7.234375 -8.265625 C 7.867188 -7.921875 8.363281 -7.410156 8.71875 -6.734375 C 9.070312 -6.066406 9.25 -5.257812 9.25 -4.3125 C 9.25 -3.363281 9.070312 -2.550781 8.71875 -1.875 C 8.363281 -1.207031 7.867188 -0.695312 7.234375 -0.34375 C 6.597656 0 5.859375 0.171875 5.015625 0.171875 Z M 5.015625 -1.671875 C 6.347656 -1.671875 7.015625 -2.550781 7.015625 -4.3125 C 7.015625 -5.21875 6.84375 -5.882812 6.5 -6.3125 C 6.15625 -6.738281 5.660156 -6.953125 5.015625 -6.953125 C 3.671875 -6.953125 3 -6.070312 3 -4.3125 C 3 -2.550781 3.671875 -1.671875 5.015625 -1.671875 Z M 5.015625 -1.671875 "/></g></g></g><g fill="#000000" fill-opacity="1"><g transform="translate(253.020348, 333.849969)"><g><path d="M 3.953125 0.171875 C 2.984375 0.171875 2.265625 -0.09375 1.796875 -0.625 C 1.335938 -1.15625 1.109375 -1.914062 1.109375 -2.90625 L 1.109375 -8.625 L 3.28125 -8.625 L 3.28125 -3.1875 C 3.28125 -2.65625 3.390625 -2.269531 3.609375 -2.03125 C 3.835938 -1.789062 4.191406 -1.671875 4.671875 -1.671875 C 5.265625 -1.671875 5.726562 -1.863281 6.0625 -2.25 C 6.394531 -2.644531 6.5625 -3.265625 6.5625 -4.109375 L 6.5625 -8.625 L 8.734375 -8.625 L 8.734375 0 L 6.65625 0 L 6.65625 -1.265625 L 6.484375 -1.3125 C 6.210938 -0.8125 5.875 -0.4375 5.46875 -0.1875 C 5.070312 0.0507812 4.566406 0.171875 3.953125 0.171875 Z M 3.953125 0.171875 "/></g></g></g><g fill="#000000" fill-opacity="1"><g transform="translate(262.986664, 333.849969)"><g><path d="M 4.265625 0.171875 C 3.578125 0.171875 2.972656 0.00390625 2.453125 -0.328125 C 1.929688 -0.660156 1.519531 -1.160156 1.21875 -1.828125 C 0.925781 -2.503906 0.78125 -3.332031 0.78125 -4.3125 C 0.78125 -5.289062 0.929688 -6.113281 1.234375 -6.78125 C 1.535156 -7.457031 1.957031 -7.957031 2.5 -8.28125 C 3.039062 -8.613281 3.664062 -8.78125 4.375 -8.78125 C 4.90625 -8.78125 5.367188 -8.6875 5.765625 -8.5 C 6.160156 -8.320312 6.492188 -8.035156 6.765625 -7.640625 L 6.921875 -7.6875 L 6.921875 -12.078125 L 9.09375 -12.078125 L 9.09375 0 L 6.921875 0 L 6.921875 -1.125 L 6.765625 -1.15625 C 6.523438 -0.75 6.195312 -0.425781 5.78125 -0.1875 C 5.363281 0.0507812 4.859375 0.171875 4.265625 0.171875 Z M 4.96875 -1.671875 C 5.570312 -1.671875 6.050781 -1.890625 6.40625 -2.328125 C 6.757812 -2.765625 6.9375 -3.425781 6.9375 -4.3125 C 6.9375 -5.195312 6.757812 -5.859375 6.40625 -6.296875 C 6.050781 -6.734375 5.570312 -6.953125 4.96875 -6.953125 C 4.332031 -6.953125 3.84375 -6.738281 3.5 -6.3125 C 3.164062 -5.882812 3 -5.21875 3 -4.3125 C 3 -3.40625 3.164062 -2.738281 3.5 -2.3125 C 3.84375 -1.882812 4.332031 -1.671875 4.96875 -1.671875 Z M 4.96875 -1.671875 "/></g></g></g></svg>